<svg width="689" height="559" viewBox="0 0 689 559" fill="none" xmlns="http://www.w3.org/2000/svg">
<path fill-rule="evenodd" clip-rule="evenodd" d="M678.221 143.334C677.688 142.946 676.422 142.809 675.834 142.692C673.386 142.21 670.865 142 668.37 142C660.677 142.012 652.859 142.767 645.294 144.074C640.49 144.903 634.683 147.696 629.905 146.179C621.581 143.537 613.168 143.667 605.27 147.439C598.049 150.888 592.568 157.439 589.369 164.517C588.886 165.586 586.928 169.519 586.374 172.17C586.137 172.712 585.909 173.257 585.704 173.811C585.122 175.384 584.599 176.984 584.114 178.588C583.906 179.272 583.385 180.782 584.004 181.074C583.015 182.901 582.137 184.783 581.407 186.726C579.282 192.378 576.958 198.578 576.211 204.568C575.935 206.786 575.924 209.017 576.181 211.239C576.308 212.338 576.256 214.546 577 215.382C578.581 217.154 579.392 214.673 579.214 213.491C577.854 204.485 580.481 196.027 583.594 187.561C585.608 182.087 588.916 177.078 592.622 172.543C595.621 168.871 598.838 165.98 602.949 163.546C607.977 160.569 613.352 158.163 618.677 155.749C622.18 154.161 625.687 152.615 629.287 151.247C630.088 150.942 631.347 150.161 632.235 150.158C634.112 150.152 636.773 151.537 638.586 152.052C644.55 153.748 650.59 155.919 656.754 156.785C660.708 157.341 664.412 156.715 668.109 155.398C668.487 155.264 669.121 154.918 669.897 154.424C672.642 153.368 675.239 152.039 677.5 150.121C678.802 149.017 679.985 147.589 681.063 146.282C681.385 145.892 681.528 145.444 681.533 145.018C681.777 144.891 681.939 144.741 681.976 144.567C682.245 143.281 679.792 143.258 678.221 143.334Z" fill="#89C5CC"/>
<path fill-rule="evenodd" clip-rule="evenodd" d="M53.2719 250.541C51.7626 251.763 50.2823 253.011 48.8381 254.31C47.7374 255.3 45.7896 256.485 45.3944 257.985C44.9837 259.544 46.2804 261.003 47.3048 261.945C52.7218 266.929 58.8216 270.298 66.3278 270.859C77.8856 271.722 87.9442 268.77 97.9725 262.963C105.016 258.883 109.682 252.849 110.701 244.701C119.09 248.187 127.203 252.993 134.098 258.891C137.5 261.801 140.43 265.025 143.14 268.599C144.876 270.889 146.555 273.215 148.113 275.631C148.79 276.68 149.479 278.542 150.597 279.146C151.91 279.856 153.497 278.743 153.432 277.284C153.377 276.069 152.066 274.66 151.452 273.667C150.434 272.018 149.4 270.379 148.311 268.776C146.549 266.179 144.728 263.62 142.742 261.19C138.278 255.73 132.599 251.221 126.712 247.375C115.418 239.997 103.023 235.349 89.2815 234.955C80.8317 234.713 73.7233 237.6 66.4973 241.911C61.9984 244.595 57.3543 247.235 53.2719 250.541Z" fill="#DDE3E9"/>
<path fill-rule="evenodd" clip-rule="evenodd" d="M162.881 214.855C154.075 205.787 145.239 196.832 135.401 188.846C129.603 184.141 123.493 179.862 117.509 175.401C118.199 176.006 118.876 176.628 119.537 177.266C117.669 175.998 115.224 175.281 113.244 174.107C111.035 172.798 108.923 171.3 106.852 169.791C102.809 166.845 98.8271 163.843 94.6711 161.051C90.0411 157.94 85.2427 155.066 80.5338 152.072C76.5373 149.532 72.492 146.751 68.2166 144.674C65.8864 143.542 63.5507 142.201 61.211 141.02C60.4279 140.625 52.4822 135.608 52.5022 135.592C52.9414 135.262 56.9399 137.14 57.5582 137.393C59.3645 138.131 61.0919 139.013 62.8285 139.893C61.8753 138.013 61.1208 136.037 60.7101 133.958C60.5832 133.316 59.5666 128.644 60.0868 128.252C60.3466 128.056 62.8816 136.416 63.0114 137.219C63.1169 137.872 63.1014 138.812 63.3151 139.43C63.6601 140.429 63.6427 140.127 64.4028 140.69C65.7958 141.721 67.6449 142.365 69.1526 143.226C69.9656 143.68 72.4828 145.48 73.9989 145.993C78.5864 148.221 83.2363 151.649 87.5951 154.495C86.4512 152.345 85.5806 150.097 84.9458 147.741C84.7947 147.182 83.1656 142.165 83.5609 141.867C84.0056 141.531 87.1098 149.195 87.2937 149.92C87.6353 151.268 87.7062 152.767 88.1341 154.079C88.6031 155.518 90.0681 156.028 91.3881 156.867C96.2451 159.953 100.936 163.232 105.548 166.662C110.581 157.711 104.778 146.903 99.8881 139.393C96.3621 133.98 91.6171 129.34 86.6058 125.289C79.9184 119.882 72.2671 115.563 64.6252 111.612C55.7208 107.009 46.0968 104.156 36.0914 102.839C30.8584 102.149 25.5048 102.169 20.2189 102.39C17.6368 102.497 15.1583 102.839 12.6838 103.682C11.5685 104.062 10.4906 104.541 9.44023 105.077C8.64213 105.484 6.71153 105.914 6.25263 106.521C2.47533 111.438 0.542927 116.337 0.838027 122.515C1.11703 128.363 2.96403 134.214 5.47063 139.431C8.26213 145.239 11.8523 150.511 16.5478 154.936C20.1302 158.312 24.1353 161.25 28.114 164.15C42.2651 174.463 60.2063 183.433 78.5344 181.128C84.4673 180.383 90.1101 178.308 95.3831 175.488C96.6261 174.824 97.8611 174.152 99.0341 173.368C99.8251 172.839 101.939 170.456 102.734 170.369C103.825 170.251 106.173 172.468 107.196 173.143C114.97 178.275 122.54 183.685 129.951 189.313C137.837 195.301 145.335 201.697 152.613 208.393C155.708 211.241 158.784 214.096 161.789 217.04C162.489 217.725 164.2 220.247 165.469 220.361C166.271 220.434 166.812 219.748 166.698 219.006C166.499 217.715 163.783 215.784 162.881 214.855Z" fill="#C1DEE2"/>
<path fill-rule="evenodd" clip-rule="evenodd" d="M668.98 179.66C665.57 178.915 661.803 178.972 658.329 179.033C639.695 179.287 621.397 188.109 609.489 202.205C599.351 214.205 596.563 229.125 594.56 244.207C594.362 245.704 594.277 247.192 594.165 248.693C594.141 249.015 594.105 249.302 594.066 249.573C593.279 250.277 592.865 251.098 593.332 252C591.597 255.797 590.129 259.69 588.869 263.706C585.162 275.526 581.392 287.571 583.714 300C584.257 293.16 585.399 286.166 586.764 279.438C586.842 279.052 586.927 278.669 587.015 278.287C587.025 278.247 587.033 278.206 587.042 278.166C587.525 276.106 588.153 274.108 588.917 272.141C588.925 272.119 588.933 272.098 588.941 272.077C589.042 271.818 589.149 271.56 589.255 271.303C589.474 270.77 589.699 270.238 589.937 269.709C590.018 269.528 590.095 269.346 590.17 269.163C591.282 266.437 591.751 263.365 592.748 260.545C592.986 259.904 593.235 259.265 593.496 258.629C593.512 258.592 593.527 258.555 593.543 258.518C594.249 256.807 595.028 255.118 595.853 253.446C596.301 253.109 596.54 252.274 596.927 251.515C597.006 251.365 597.631 250.368 597.817 249.793C598.303 248.854 598.786 247.915 599.275 246.977C599.261 246.983 599.246 246.988 599.231 246.994C599.72 246.093 600.211 245.197 600.698 244.304C600.805 244.108 600.913 243.912 601.021 243.715C601.196 243.402 601.371 243.089 601.545 242.777C603.177 239.856 604.908 236.994 606.705 234.167C607.347 233.158 608.879 231.711 609.173 230.579C609.184 230.536 609.186 230.497 609.193 230.457C613.093 224.979 617.582 219.927 622.967 215.924C622.316 216.628 620.932 219.015 620.567 219.488C619.447 220.935 618.232 222.282 617.013 223.646C614.828 226.089 612.696 228.609 610.801 231.274C607.335 236.148 604.346 241.277 601.519 246.51C601.493 246.54 601.463 246.569 601.438 246.601C600.017 248.352 599.123 250.998 598.101 253.001C602.147 251.127 606.622 249.906 610.774 248.242C614.916 246.583 618.944 244.735 622.834 242.566C628.003 239.682 633.366 236.427 638.25 232.743C643.847 229.271 648.551 224.492 652.703 219.477C657.615 213.543 662.117 207.558 664.901 200.353C666.269 196.813 667.345 193.121 667.983 189.386C668.011 189.224 668.046 189.047 668.085 188.864C668.738 187.574 669.321 186.255 669.811 184.906C670.588 182.766 672.425 180.412 668.98 179.66Z" fill="#69A1AC"/>
<path fill-rule="evenodd" clip-rule="evenodd" d="M91.0044 204.729C89.9364 203.572 88.7364 202.528 87.3271 201.783C86.9708 201.595 84.3172 200.335 84.1444 200.611C83.7418 201.255 90.6834 204.359 91.0044 204.729ZM103.586 197C103.577 197.049 104.497 198.61 104.748 199.09C105.281 200.111 105.773 201.151 106.236 202.194C105.551 200.353 104.846 198.645 103.586 197ZM39.2415 209.709C38.3553 209.994 37.2899 208.869 38.4393 208.592C39.3694 208.37 39.3238 208.318 39.7414 207.568C40.0805 206.96 40.2894 206.218 40.587 205.58C41.2182 204.226 41.9342 202.934 42.8131 201.724C44.6967 199.13 46.9916 196.895 49.5656 195.011C54.0576 191.725 59.0943 188.72 64.4372 187.211C72.9323 184.811 82.601 184.663 91.1094 186.327C96.3794 187.357 101.194 189.149 104.693 193.392C106.442 195.512 107.815 197.996 108.415 200.731C108.572 201.446 108.542 202.241 108.738 202.941C109.04 204.018 108.907 203.731 110.166 203.94C111.54 204.169 112.913 204.402 114.286 204.64C117.881 205.262 121.497 205.922 125 206.931C126.153 207.263 127.28 207.669 128.382 208.14C129.215 208.496 132.532 209.615 132.935 210.697C133.606 212.498 131.358 211.682 130.659 211.289C130.047 210.946 129.419 210.625 128.782 210.33C127.177 209.588 125.505 209.013 123.795 208.556C121.947 208.062 120.062 207.693 118.183 207.323C116.432 206.979 114.674 206.666 112.913 206.366C111.935 206.2 110.957 206.038 109.978 205.877C109.643 205.821 109.054 205.532 109.098 205.967C107.04 205.57 104.815 205.627 102.719 205.518C100.152 205.384 97.5754 205.274 94.9994 205.354C93.1414 205.412 91.2823 205.534 89.4333 205.784C88.3533 205.93 87.2906 206.143 86.2309 206.413C85.6488 206.562 83.3534 206.877 83.0363 207.384C83.1725 207.166 85.7058 207.378 86.0283 207.365C87.318 207.317 88.5974 207.189 89.8824 207.046C92.2674 206.779 94.6523 206.64 97.0443 206.66C97.0353 207.08 95.4013 207.828 95.0023 208.106C94.1083 208.731 93.2514 209.411 92.4524 210.158C91.0454 211.473 89.3594 213.102 88.3864 214.661C88.6734 214.201 90.0884 213.604 90.5904 213.253C91.3954 212.691 92.1844 212.091 92.9304 211.45C93.6184 210.858 94.2614 210.218 94.8934 209.565C95.5254 208.912 96.3824 207.553 97.2134 207.118C97.2634 207.091 97.6254 207.377 97.8304 207.28C98.0384 207.182 98.2964 206.692 98.3484 206.672C99.1214 206.374 100.589 206.745 101.402 206.783C103.509 206.88 105.615 207.007 107.72 207.123C108.373 207.159 108.927 207.01 109.174 207.491C109.436 208.005 108.955 209.354 108.818 209.913C108.31 211.989 107.409 213.85 105.989 215.459C103.331 218.472 100.052 220.48 96.3493 221.824C82.165 226.97 67.0747 229.031 52.8945 223.678C47.024 221.461 38.1829 217.501 39.2415 209.709Z" fill="#89C5CC"/>
<g opacity="0.6">
<path fill-rule="evenodd" clip-rule="evenodd" d="M688.711 452.152C698.361 517.476 464.337 560.085 262.908 530.349C61.4782 500.614 -30.9281 384.493 65.1907 322.62C161.31 260.746 679.061 386.828 688.711 452.152Z" fill="#DDE3E9"/>
</g>
<path d="M277 24H134C129.582 24 126 27.5817 126 32V318C126 322.418 129.582 326 134 326H277C281.418 326 285 322.418 285 318V32C285 27.5817 281.418 24 277 24Z" fill="#F2F2F2"/>
<path fill-rule="evenodd" clip-rule="evenodd" d="M205 307C213.284 307 220 300.284 220 292C220 283.716 213.284 277 205 277C196.716 277 190 283.716 190 292C190 300.284 196.716 307 205 307Z" fill="white"/>
<path fill-rule="evenodd" clip-rule="evenodd" d="M192 44C193.105 44 194 43.1046 194 42C194 40.8954 193.105 40 192 40C190.895 40 190 40.8954 190 42C190 43.1046 190.895 44 192 44Z" fill="white"/>
<path d="M218 40H201C199.895 40 199 40.8954 199 42C199 43.1046 199.895 44 201 44H218C219.105 44 220 43.1046 220 42C220 40.8954 219.105 40 218 40Z" fill="white"/>
<path d="M267 52H144C141.791 52 140 53.7909 140 56V102C140 104.209 141.791 106 144 106H267C269.209 106 271 104.209 271 102V56C271 53.7909 269.209 52 267 52Z" fill="white"/>
<mask id="mask0_907_423" style="mask-type:luminance" maskUnits="userSpaceOnUse" x="179" y="68" width="73" height="22">
<path d="M252 68.2H179V89.8H252V68.2Z" fill="white"/>
</mask>
<g mask="url(#mask0_907_423)">
<path d="M249 68.2H182C180.343 68.2 179 69.5431 179 71.2V73.3C179 74.9568 180.343 76.3 182 76.3H249C250.657 76.3 252 74.9568 252 73.3V71.2C252 69.5431 250.657 68.2 249 68.2Z" fill="#DDE3E9"/>
<path d="M225 81.7H182C180.343 81.7 179 83.0431 179 84.7V86.8C179 88.4568 180.343 89.8 182 89.8H225C226.657 89.8 228 88.4568 228 86.8V84.7C228 83.0431 226.657 81.7 225 81.7Z" fill="#DDE3E9"/>
</g>
<path fill-rule="evenodd" clip-rule="evenodd" d="M161 91C167.627 91 173 85.627 173 79C173 72.373 167.627 67 161 67C154.373 67 149 72.373 149 79C149 85.627 154.373 91 161 91Z" fill="#C5CFD6"/>
<path d="M267 114H144C141.791 114 140 115.791 140 118V152C140 154.209 141.791 156 144 156H267C269.209 156 271 154.209 271 152V118C271 115.791 269.209 114 267 114Z" fill="white"/>
<mask id="mask1_907_423" style="mask-type:luminance" maskUnits="userSpaceOnUse" x="179" y="126" width="73" height="18">
<path d="M252 126.6H179V143.4H252V126.6Z" fill="white"/>
</mask>
<g mask="url(#mask1_907_423)">
<path d="M249 126.6H182C180.343 126.6 179 127.943 179 129.6V129.9C179 131.557 180.343 132.9 182 132.9H249C250.657 132.9 252 131.557 252 129.9V129.6C252 127.943 250.657 126.6 249 126.6Z" fill="#DDE3E9"/>
<path d="M225 137.1H182C180.343 137.1 179 138.443 179 140.1V140.4C179 142.057 180.343 143.4 182 143.4H225C226.657 143.4 228 142.057 228 140.4V140.1C228 138.443 226.657 137.1 225 137.1Z" fill="#DDE3E9"/>
</g>
<path fill-rule="evenodd" clip-rule="evenodd" d="M161 147C167.627 147 173 141.627 173 135C173 128.373 167.627 123 161 123C154.373 123 149 128.373 149 135C149 141.627 154.373 147 161 147Z" fill="#C5CFD6"/>
<path d="M267 164H144C141.791 164 140 165.791 140 168V202C140 204.209 141.791 206 144 206H267C269.209 206 271 204.209 271 202V168C271 165.791 269.209 164 267 164Z" fill="white"/>
<mask id="mask2_907_423" style="mask-type:luminance" maskUnits="userSpaceOnUse" x="179" y="176" width="73" height="18">
<path d="M252 176.6H179V193.4H252V176.6Z" fill="white"/>
</mask>
<g mask="url(#mask2_907_423)">
<path d="M249 176.6H182C180.343 176.6 179 177.943 179 179.6V179.9C179 181.557 180.343 182.9 182 182.9H249C250.657 182.9 252 181.557 252 179.9V179.6C252 177.943 250.657 176.6 249 176.6Z" fill="#DDE3E9"/>
<path d="M225 187.1H182C180.343 187.1 179 188.443 179 190.1V190.4C179 192.057 180.343 193.4 182 193.4H225C226.657 193.4 228 192.057 228 190.4V190.1C228 188.443 226.657 187.1 225 187.1Z" fill="#DDE3E9"/>
</g>
<path fill-rule="evenodd" clip-rule="evenodd" d="M161 197C167.627 197 173 191.627 173 185C173 178.373 167.627 173 161 173C154.373 173 149 178.373 149 185C149 191.627 154.373 197 161 197Z" fill="#AFB9C5"/>
<path d="M267 214H144C141.791 214 140 215.791 140 218V252C140 254.209 141.791 256 144 256H267C269.209 256 271 254.209 271 252V218C271 215.791 269.209 214 267 214Z" fill="white"/>
<mask id="mask3_907_423" style="mask-type:luminance" maskUnits="userSpaceOnUse" x="179" y="226" width="73" height="18">
<path d="M252 226.6H179V243.4H252V226.6Z" fill="white"/>
</mask>
<g mask="url(#mask3_907_423)">
<path d="M249 226.6H182C180.343 226.6 179 227.943 179 229.6V229.9C179 231.557 180.343 232.9 182 232.9H249C250.657 232.9 252 231.557 252 229.9V229.6C252 227.943 250.657 226.6 249 226.6Z" fill="#DDE3E9"/>
<path d="M225 237.1H182C180.343 237.1 179 238.443 179 240.1V240.4C179 242.057 180.343 243.4 182 243.4H225C226.657 243.4 228 242.057 228 240.4V240.1C228 238.443 226.657 237.1 225 237.1Z" fill="#DDE3E9"/>
</g>
<path fill-rule="evenodd" clip-rule="evenodd" d="M161 247C167.627 247 173 241.627 173 235C173 228.373 167.627 223 161 223C154.373 223 149 228.373 149 235C149 241.627 154.373 247 161 247Z" fill="#C5CFD6"/>
<path fill-rule="evenodd" clip-rule="evenodd" d="M156.136 268C154.811 268 153.49 268.027 152.167 268.095C151.158 268.148 149.617 267.939 148.764 268.568C147.877 269.221 147.938 270.557 148.077 271.501C148.809 276.493 150.596 280.919 154.335 284.456C160.092 289.901 166.691 292.668 174.5 293.9C179.986 294.766 185.05 293.564 189.088 289.663C192.039 295.139 194.277 301.199 195.4 307.315C195.954 310.333 196.123 313.315 196.026 316.388C195.963 318.356 195.855 320.32 195.644 322.279C195.552 323.13 195.118 324.418 195.451 325.223C195.842 326.167 197.161 326.259 197.753 325.453C198.246 324.783 198.156 323.466 198.257 322.673C198.425 321.355 198.58 320.036 198.691 318.712C198.872 316.569 199.005 314.42 198.996 312.268C198.973 307.435 197.898 302.583 196.428 297.995C193.608 289.192 189.033 281.369 181.917 275.231C177.541 271.457 172.533 269.929 166.852 269.108C163.314 268.597 159.719 268 156.136 268Z" fill="#89C5CC"/>
<path fill-rule="evenodd" clip-rule="evenodd" d="M176.567 303C162.268 303 152.638 314.524 148.085 326.502C146.368 331.016 145.966 335.974 145.304 340.714C145.092 342.236 145.171 344.554 144.553 345.909C144.329 346.401 143.815 346.577 144.061 347.247C144.21 347.652 144.501 347.901 144.94 347.981C145.839 348.147 147.111 347.167 147.882 346.781C154.278 343.573 158.48 338.613 161.908 332.545C164.034 328.784 166.19 324.879 167.452 320.75C168.223 318.227 168.672 315.571 168.936 312.954C169.04 311.923 169.14 310.868 169.134 309.832C169.128 308.803 168.649 308.259 168.305 307.364C173.076 305.558 178.462 305.066 183.295 306.937C187.765 308.668 191.478 312.013 193.557 316.216C194.097 317.308 194.514 318.46 194.817 319.636C195.016 320.406 195.025 321.404 195.394 322.1C196.286 323.788 198.164 322.66 197.984 321.089C197.481 316.708 194.975 312.309 191.771 309.263C187.73 305.421 182.254 303 176.567 303Z" fill="#89C5CC"/>
<path d="M342.996 50H199.996C195.578 50 191.996 53.5817 191.996 58V344C191.996 348.418 195.578 352 199.996 352H342.996C347.414 352 350.996 348.418 350.996 344V58C350.996 53.5817 347.414 50 342.996 50Z" fill="#DDE3E9"/>
<path fill-rule="evenodd" clip-rule="evenodd" d="M270.996 333C279.28 333 285.996 326.284 285.996 318C285.996 309.716 279.28 303 270.996 303C262.712 303 255.996 309.716 255.996 318C255.996 326.284 262.712 333 270.996 333Z" fill="white"/>
<path fill-rule="evenodd" clip-rule="evenodd" d="M257.996 70C259.101 70 259.996 69.105 259.996 68C259.996 66.895 259.101 66 257.996 66C256.891 66 255.996 66.895 255.996 68C255.996 69.105 256.891 70 257.996 70Z" fill="white"/>
<path d="M283.996 66H266.996C265.892 66 264.996 66.8954 264.996 68C264.996 69.1046 265.892 70 266.996 70H283.996C285.101 70 285.996 69.1046 285.996 68C285.996 66.8954 285.101 66 283.996 66Z" fill="white"/>
<path d="M332.996 78H209.996C207.787 78 205.996 79.7909 205.996 82V128C205.996 130.209 207.787 132 209.996 132H332.996C335.205 132 336.996 130.209 336.996 128V82C336.996 79.7909 335.205 78 332.996 78Z" fill="white"/>
<mask id="mask4_907_423" style="mask-type:luminance" maskUnits="userSpaceOnUse" x="214" y="94" width="74" height="22">
<path d="M287.996 94.2H214.996V115.8H287.996V94.2Z" fill="white"/>
</mask>
<g mask="url(#mask4_907_423)">
<path d="M284.996 94.2H217.996C216.339 94.2 214.996 95.5431 214.996 97.2V99.3C214.996 100.957 216.339 102.3 217.996 102.3H284.996C286.653 102.3 287.996 100.957 287.996 99.3V97.2C287.996 95.5431 286.653 94.2 284.996 94.2Z" fill="#DDE3E9"/>
<path d="M260.996 107.7H217.996C216.339 107.7 214.996 109.043 214.996 110.7V112.8C214.996 114.457 216.339 115.8 217.996 115.8H260.996C262.653 115.8 263.996 114.457 263.996 112.8V110.7C263.996 109.043 262.653 107.7 260.996 107.7Z" fill="#DDE3E9"/>
</g>
<path fill-rule="evenodd" clip-rule="evenodd" d="M322.996 112C326.862 112 329.996 108.866 329.996 105C329.996 101.134 326.862 98 322.996 98C319.13 98 315.996 101.134 315.996 105C315.996 108.866 319.13 112 322.996 112Z" fill="#DDE3E9"/>
<path fill-rule="evenodd" clip-rule="evenodd" d="M322.996 108C324.653 108 325.996 106.657 325.996 105C325.996 103.343 324.653 102 322.996 102C321.339 102 319.996 103.343 319.996 105C319.996 106.657 321.339 108 322.996 108Z" fill="#F2F2F2"/>
<path d="M332.996 140H209.996C207.787 140 205.996 141.791 205.996 144V178C205.996 180.209 207.787 182 209.996 182H332.996C335.205 182 336.996 180.209 336.996 178V144C336.996 141.791 335.205 140 332.996 140Z" fill="white"/>
<mask id="mask5_907_423" style="mask-type:luminance" maskUnits="userSpaceOnUse" x="244" y="152" width="74" height="18">
<path d="M317.996 152.6H244.996V169.4H317.996V152.6Z" fill="white"/>
</mask>
<g mask="url(#mask5_907_423)">
<path d="M314.996 152.6H247.996C246.339 152.6 244.996 153.943 244.996 155.6V155.9C244.996 157.557 246.339 158.9 247.996 158.9H314.996C316.653 158.9 317.996 157.557 317.996 155.9V155.6C317.996 153.943 316.653 152.6 314.996 152.6Z" fill="#DDE3E9"/>
<path d="M290.996 163.1H247.996C246.339 163.1 244.996 164.443 244.996 166.1V166.4C244.996 168.057 246.339 169.4 247.996 169.4H290.996C292.653 169.4 293.996 168.057 293.996 166.4V166.1C293.996 164.443 292.653 163.1 290.996 163.1Z" fill="#DDE3E9"/>
</g>
<path fill-rule="evenodd" clip-rule="evenodd" d="M226.996 173C233.623 173 238.996 167.627 238.996 161C238.996 154.373 233.623 149 226.996 149C220.369 149 214.996 154.373 214.996 161C214.996 167.627 220.369 173 226.996 173Z" fill="#C5CFD6"/>
<path d="M332.996 190H209.996C207.787 190 205.996 191.791 205.996 194V228C205.996 230.209 207.787 232 209.996 232H332.996C335.205 232 336.996 230.209 336.996 228V194C336.996 191.791 335.205 190 332.996 190Z" fill="white"/>
<mask id="mask6_907_423" style="mask-type:luminance" maskUnits="userSpaceOnUse" x="214" y="202" width="74" height="18">
<path d="M287.996 202.6H214.996V219.4H287.996V202.6Z" fill="white"/>
</mask>
<g mask="url(#mask6_907_423)">
<path d="M284.996 202.6H217.996C216.339 202.6 214.996 203.943 214.996 205.6V205.9C214.996 207.557 216.339 208.9 217.996 208.9H284.996C286.653 208.9 287.996 207.557 287.996 205.9V205.6C287.996 203.943 286.653 202.6 284.996 202.6Z" fill="#DDE3E9"/>
<path d="M260.996 213.1H217.996C216.339 213.1 214.996 214.443 214.996 216.1V216.4C214.996 218.057 216.339 219.4 217.996 219.4H260.996C262.653 219.4 263.996 218.057 263.996 216.4V216.1C263.996 214.443 262.653 213.1 260.996 213.1Z" fill="#AFB9C5"/>
</g>
<path fill-rule="evenodd" clip-rule="evenodd" d="M322.996 218C326.862 218 329.996 214.866 329.996 211C329.996 207.134 326.862 204 322.996 204C319.13 204 315.996 207.134 315.996 211C315.996 214.866 319.13 218 322.996 218Z" fill="#DDE3E9"/>
<path fill-rule="evenodd" clip-rule="evenodd" d="M322.996 214C324.653 214 325.996 212.657 325.996 211C325.996 209.343 324.653 208 322.996 208C321.339 208 319.996 209.343 319.996 211C319.996 212.657 321.339 214 322.996 214Z" fill="#F2F2F2"/>
<path d="M332.996 240H209.996C207.787 240 205.996 241.791 205.996 244V278C205.996 280.209 207.787 282 209.996 282H332.996C335.205 282 336.996 280.209 336.996 278V244C336.996 241.791 335.205 240 332.996 240Z" fill="white"/>
<mask id="mask7_907_423" style="mask-type:luminance" maskUnits="userSpaceOnUse" x="244" y="252" width="74" height="18">
<path d="M317.996 252.6H244.996V269.4H317.996V252.6Z" fill="white"/>
</mask>
<g mask="url(#mask7_907_423)">
<path d="M314.996 252.6H247.996C246.339 252.6 244.996 253.943 244.996 255.6V255.9C244.996 257.557 246.339 258.9 247.996 258.9H314.996C316.653 258.9 317.996 257.557 317.996 255.9V255.6C317.996 253.943 316.653 252.6 314.996 252.6Z" fill="#DDE3E9"/>
<path d="M290.996 263.1H247.996C246.339 263.1 244.996 264.443 244.996 266.1V266.4C244.996 268.057 246.339 269.4 247.996 269.4H290.996C292.653 269.4 293.996 268.057 293.996 266.4V266.1C293.996 264.443 292.653 263.1 290.996 263.1Z" fill="#DDE3E9"/>
</g>
<path fill-rule="evenodd" clip-rule="evenodd" d="M226.996 273C233.623 273 238.996 267.627 238.996 261C238.996 254.373 233.623 249 226.996 249C220.369 249 214.996 254.373 214.996 261C214.996 267.627 220.369 273 226.996 273Z" fill="#C5CFD6"/>
<path d="M585 75H266C261.582 75 258 78.5817 258 83V413C258 417.418 261.582 421 266 421H585C589.418 421 593 417.418 593 413V83C593 78.5817 589.418 75 585 75Z" fill="#F2F2F2"/>
<path d="M569 118H515C510.582 118 507 121.582 507 126V191C507 195.418 510.582 199 515 199H569C573.418 199 577 195.418 577 191V126C577 121.582 573.418 118 569 118Z" fill="white"/>
<path fill-rule="evenodd" clip-rule="evenodd" d="M542 165C550.837 165 558 157.837 558 149C558 140.163 550.837 133 542 133C533.163 133 526 140.163 526 149C526 157.837 533.163 165 542 165Z" fill="#DDE3E9"/>
<path d="M564 169H520C518.343 169 517 170.343 517 172C517 173.657 518.343 175 520 175H564C565.657 175 567 173.657 567 172C567 170.343 565.657 169 564 169Z" fill="#DDE3E9"/>
<path d="M556 179H528C526.343 179 525 180.343 525 182C525 183.657 526.343 185 528 185H556C557.657 185 559 183.657 559 182C559 180.343 557.657 179 556 179Z" fill="#DDE3E9"/>
<path d="M258 83C258 78.582 261.582 75 266 75H585C589.418 75 593 78.582 593 83V102H258V83Z" fill="#C5CFD6"/>
<path fill-rule="evenodd" clip-rule="evenodd" d="M271 93C273.209 93 275 91.209 275 89C275 86.791 273.209 85 271 85C268.791 85 267 86.791 267 89C267 91.209 268.791 93 271 93Z" fill="#F2F2F2"/>
<path fill-rule="evenodd" clip-rule="evenodd" d="M283 93C285.209 93 287 91.209 287 89C287 86.791 285.209 85 283 85C280.791 85 279 86.791 279 89C279 91.209 280.791 93 283 93Z" fill="#F2F2F2"/>
<path fill-rule="evenodd" clip-rule="evenodd" d="M295 93C297.209 93 299 91.209 299 89C299 86.791 297.209 85 295 85C292.791 85 291 86.791 291 89C291 91.209 292.791 93 295 93Z" fill="#F2F2F2"/>
<path d="M569 207H515C510.582 207 507 210.582 507 215V393C507 397.418 510.582 401 515 401H569C573.418 401 577 397.418 577 393V215C577 210.582 573.418 207 569 207Z" fill="white"/>
<path d="M555 225H529C526.791 225 525 226.791 525 229V247C525 249.209 526.791 251 529 251H555C557.209 251 559 249.209 559 247V229C559 226.791 557.209 225 555 225Z" fill="#DDE3E9"/>
<path d="M555 259H529C526.791 259 525 260.791 525 263V280C525 282.209 526.791 284 529 284H555C557.209 284 559 282.209 559 280V263C559 260.791 557.209 259 555 259Z" fill="#AFB9C5"/>
<path d="M555 292H529C526.791 292 525 293.791 525 296V313C525 315.209 526.791 317 529 317H555C557.209 317 559 315.209 559 313V296C559 293.791 557.209 292 555 292Z" fill="#DDE3E9"/>
<path d="M555 358H529C526.791 358 525 359.791 525 362V379C525 381.209 526.791 383 529 383H555C557.209 383 559 381.209 559 379V362C559 359.791 557.209 358 555 358Z" fill="#DDE3E9"/>
<path d="M555 325H529C526.791 325 525 326.791 525 329V346C525 348.209 526.791 350 529 350H555C557.209 350 559 348.209 559 346V329C559 326.791 557.209 325 555 325Z" fill="#C5CFD6"/>
<path d="M495 119H278C275.791 119 274 120.791 274 123V162C274 164.209 275.791 166 278 166H495C497.209 166 499 164.209 499 162V123C499 120.791 497.209 119 495 119Z" fill="white"/>
<mask id="mask8_907_423" style="mask-type:luminance" maskUnits="userSpaceOnUse" x="283" y="133" width="167" height="19">
<path d="M450 133.1H283V151.9H450V133.1Z" fill="white"/>
</mask>
<g mask="url(#mask8_907_423)">
<path d="M447 133.1H286C284.343 133.1 283 134.443 283 136.1V137.15C283 138.807 284.343 140.15 286 140.15H447C448.657 140.15 450 138.807 450 137.15V136.1C450 134.443 448.657 133.1 447 133.1Z" fill="#DDE3E9"/>
<path d="M392.096 144.85H286C284.343 144.85 283 146.193 283 147.85V148.9C283 150.557 284.343 151.9 286 151.9H392.096C393.753 151.9 395.096 150.557 395.096 148.9V147.85C395.096 146.193 393.753 144.85 392.096 144.85Z" fill="#DDE3E9"/>
</g>
<path fill-rule="evenodd" clip-rule="evenodd" d="M474.953 149.5C478.819 149.5 481.953 146.366 481.953 142.5C481.953 138.634 478.819 135.5 474.953 135.5C471.087 135.5 467.953 138.634 467.953 142.5C467.953 146.366 471.087 149.5 474.953 149.5Z" fill="#DDE3E9"/>
<path fill-rule="evenodd" clip-rule="evenodd" d="M474.953 145.5C476.61 145.5 477.953 144.157 477.953 142.5C477.953 140.843 476.61 139.5 474.953 139.5C473.296 139.5 471.953 140.843 471.953 142.5C471.953 144.157 473.296 145.5 474.953 145.5Z" fill="#F2F2F2"/>
<path d="M495 174H278C275.791 174 274 175.791 274 178V209C274 211.209 275.791 213 278 213H495C497.209 213 499 211.209 499 209V178C499 175.791 497.209 174 495 174Z" fill="white"/>
<mask id="mask9_907_423" style="mask-type:luminance" maskUnits="userSpaceOnUse" x="283" y="185" width="167" height="17">
<path d="M450 185.7H283V201.3H450V185.7Z" fill="white"/>
</mask>
<g mask="url(#mask9_907_423)">
<path d="M447.075 185.7H285.925C284.31 185.7 283 187.01 283 188.625C283 190.24 284.31 191.55 285.925 191.55H447.075C448.69 191.55 450 190.24 450 188.625C450 187.01 448.69 185.7 447.075 185.7Z" fill="#DDE3E9"/>
<path d="M392.171 195.45H285.925C284.31 195.45 283 196.76 283 198.375C283 199.99 284.31 201.3 285.925 201.3H392.171C393.786 201.3 395.096 199.99 395.096 198.375C395.096 196.76 393.786 195.45 392.171 195.45Z" fill="#DDE3E9"/>
</g>
<path fill-rule="evenodd" clip-rule="evenodd" d="M474.953 200.5C478.819 200.5 481.953 197.366 481.953 193.5C481.953 189.634 478.819 186.5 474.953 186.5C471.087 186.5 467.953 189.634 467.953 193.5C467.953 197.366 471.087 200.5 474.953 200.5Z" fill="#DDE3E9"/>
<path fill-rule="evenodd" clip-rule="evenodd" d="M474.953 196.5C476.61 196.5 477.953 195.157 477.953 193.5C477.953 191.843 476.61 190.5 474.953 190.5C473.296 190.5 471.953 191.843 471.953 193.5C471.953 195.157 473.296 196.5 474.953 196.5Z" fill="#F2F2F2"/>
<path d="M495 221H278C275.791 221 274 222.791 274 225V256C274 258.209 275.791 260 278 260H495C497.209 260 499 258.209 499 256V225C499 222.791 497.209 221 495 221Z" fill="white"/>
<mask id="mask10_907_423" style="mask-type:luminance" maskUnits="userSpaceOnUse" x="283" y="232" width="167" height="17">
<path d="M450 232.7H283V248.3H450V232.7Z" fill="white"/>
</mask>
<g mask="url(#mask10_907_423)">
<path d="M447.075 232.7H285.925C284.31 232.7 283 234.01 283 235.625C283 237.24 284.31 238.55 285.925 238.55H447.075C448.69 238.55 450 237.24 450 235.625C450 234.01 448.69 232.7 447.075 232.7Z" fill="#DDE3E9"/>
<path d="M392.171 242.45H285.925C284.31 242.45 283 243.76 283 245.375C283 246.99 284.31 248.3 285.925 248.3H392.171C393.786 248.3 395.096 246.99 395.096 245.375C395.096 243.76 393.786 242.45 392.171 242.45Z" fill="#DDE3E9"/>
</g>
<path fill-rule="evenodd" clip-rule="evenodd" d="M474.953 247.5C478.819 247.5 481.953 244.366 481.953 240.5C481.953 236.634 478.819 233.5 474.953 233.5C471.087 233.5 467.953 236.634 467.953 240.5C467.953 244.366 471.087 247.5 474.953 247.5Z" fill="#DDE3E9"/>
<path fill-rule="evenodd" clip-rule="evenodd" d="M474.953 243.5C476.61 243.5 477.953 242.157 477.953 240.5C477.953 238.843 476.61 237.5 474.953 237.5C473.296 237.5 471.953 238.843 471.953 240.5C471.953 242.157 473.296 243.5 474.953 243.5Z" fill="#AFB9C5"/>
<path d="M495 362H278C275.791 362 274 363.791 274 366V397C274 399.209 275.791 401 278 401H495C497.209 401 499 399.209 499 397V366C499 363.791 497.209 362 495 362Z" fill="white"/>
<mask id="mask11_907_423" style="mask-type:luminance" maskUnits="userSpaceOnUse" x="283" y="373" width="167" height="17">
<path d="M450 373.7H283V389.3H450V373.7Z" fill="white"/>
</mask>
<g mask="url(#mask11_907_423)">
<path d="M447.075 373.7H285.925C284.31 373.7 283 375.01 283 376.625C283 378.24 284.31 379.55 285.925 379.55H447.075C448.69 379.55 450 378.24 450 376.625C450 375.01 448.69 373.7 447.075 373.7Z" fill="#DDE3E9"/>
<path d="M392.171 383.45H285.925C284.31 383.45 283 384.76 283 386.375C283 387.99 284.31 389.3 285.925 389.3H392.171C393.786 389.3 395.096 387.99 395.096 386.375C395.096 384.76 393.786 383.45 392.171 383.45Z" fill="#DDE3E9"/>
</g>
<path fill-rule="evenodd" clip-rule="evenodd" d="M474.953 388.5C478.819 388.5 481.953 385.366 481.953 381.5C481.953 377.634 478.819 374.5 474.953 374.5C471.087 374.5 467.953 377.634 467.953 381.5C467.953 385.366 471.087 388.5 474.953 388.5Z" fill="#DDE3E9"/>
<path fill-rule="evenodd" clip-rule="evenodd" d="M474.953 384.5C476.61 384.5 477.953 383.157 477.953 381.5C477.953 379.843 476.61 378.5 474.953 378.5C473.296 378.5 471.953 379.843 471.953 381.5C471.953 383.157 473.296 384.5 474.953 384.5Z" fill="#F2F2F2"/>
<path d="M495 315H278C275.791 315 274 316.791 274 319V350C274 352.209 275.791 354 278 354H495C497.209 354 499 352.209 499 350V319C499 316.791 497.209 315 495 315Z" fill="white"/>
<mask id="mask12_907_423" style="mask-type:luminance" maskUnits="userSpaceOnUse" x="283" y="326" width="167" height="17">
<path d="M450 326.7H283V342.3H450V326.7Z" fill="white"/>
</mask>
<g mask="url(#mask12_907_423)">
<path d="M447.075 326.7H285.925C284.31 326.7 283 328.01 283 329.625C283 331.24 284.31 332.55 285.925 332.55H447.075C448.69 332.55 450 331.24 450 329.625C450 328.01 448.69 326.7 447.075 326.7Z" fill="#DDE3E9"/>
<path d="M392.171 336.45H285.925C284.31 336.45 283 337.76 283 339.375C283 340.99 284.31 342.3 285.925 342.3H392.171C393.786 342.3 395.096 340.99 395.096 339.375C395.096 337.76 393.786 336.45 392.171 336.45Z" fill="#DDE3E9"/>
</g>
<path fill-rule="evenodd" clip-rule="evenodd" d="M474.953 341.5C478.819 341.5 481.953 338.366 481.953 334.5C481.953 330.634 478.819 327.5 474.953 327.5C471.087 327.5 467.953 330.634 467.953 334.5C467.953 338.366 471.087 341.5 474.953 341.5Z" fill="#DDE3E9"/>
<path fill-rule="evenodd" clip-rule="evenodd" d="M474.953 337.5C476.61 337.5 477.953 336.157 477.953 334.5C477.953 332.843 476.61 331.5 474.953 331.5C473.296 331.5 471.953 332.843 471.953 334.5C471.953 336.157 473.296 337.5 474.953 337.5Z" fill="#F2F2F2"/>
<path d="M495 268H278C275.791 268 274 269.791 274 272V303C274 305.209 275.791 307 278 307H495C497.209 307 499 305.209 499 303V272C499 269.791 497.209 268 495 268Z" fill="white"/>
<mask id="mask13_907_423" style="mask-type:luminance" maskUnits="userSpaceOnUse" x="283" y="279" width="167" height="17">
<path d="M450 279.7H283V295.3H450V279.7Z" fill="white"/>
</mask>
<g mask="url(#mask13_907_423)">
<path d="M447.075 279.7H285.925C284.31 279.7 283 281.01 283 282.625C283 284.24 284.31 285.55 285.925 285.55H447.075C448.69 285.55 450 284.24 450 282.625C450 281.01 448.69 279.7 447.075 279.7Z" fill="#DDE3E9"/>
<path d="M392.171 289.45H285.925C284.31 289.45 283 290.76 283 292.375C283 293.99 284.31 295.3 285.925 295.3H392.171C393.786 295.3 395.096 293.99 395.096 292.375C395.096 290.76 393.786 289.45 392.171 289.45Z" fill="#DDE3E9"/>
</g>
<path fill-rule="evenodd" clip-rule="evenodd" d="M474.953 294.5C478.819 294.5 481.953 291.366 481.953 287.5C481.953 283.634 478.819 280.5 474.953 280.5C471.087 280.5 467.953 283.634 467.953 287.5C467.953 291.366 471.087 294.5 474.953 294.5Z" fill="#DDE3E9"/>
<path fill-rule="evenodd" clip-rule="evenodd" d="M474.953 290.5C476.61 290.5 477.953 289.157 477.953 287.5C477.953 285.843 476.61 284.5 474.953 284.5C473.296 284.5 471.953 285.843 471.953 287.5C471.953 289.157 473.296 290.5 474.953 290.5Z" fill="#F2F2F2"/>
<path fill-rule="evenodd" clip-rule="evenodd" d="M675.982 245.376C672.037 242.701 666.792 242 662.072 242C643.636 242 626.307 248.84 611.337 259.032C603.134 264.616 595.796 271.728 589.318 279.132C585.578 283.407 582.244 288.03 579.883 293.173C578.29 296.644 577.197 300.261 576.456 303.991C575.553 308.537 574.835 313.175 574.511 317.797C574.383 319.617 573.326 329.274 576.352 329.438C576.334 329.676 576.33 329.903 576.349 330.106C569.778 340.38 565.719 352.42 561.954 363.835C558.679 373.769 555.76 383.786 553.866 394.063C551.371 407.592 549.733 421.326 548.954 435.05C548.787 437.999 548.672 440.95 548.573 443.903C548.489 446.422 548.404 448.941 548.321 451.461C548.229 454.284 547.732 457.534 548.181 460.34C548.572 462.784 550.687 462.414 550.781 459.982C550.894 457.045 550.875 454.102 551.004 451.163C551.175 447.262 551.351 443.361 551.542 439.461C552.871 412.369 557.856 385.675 567.057 360.084C570.781 349.728 575.047 339.925 580.531 330.345C585.352 321.922 591.152 313.767 597.08 306.173C602.841 298.792 608.832 291.583 615.891 285.33C621.62 280.256 627.922 275.835 634.4 271.722C642.627 266.498 650.839 261.401 659.751 257.391C664.384 255.307 669.104 253.441 673.773 251.44C674.613 251.081 675.513 250.732 676.321 250.315C679.016 248.925 678.129 246.832 675.982 245.376Z" fill="#C1DEE2"/>
<path fill-rule="evenodd" clip-rule="evenodd" d="M601.818 340C609.295 340 615.949 340.972 622.838 343.943C628.785 346.508 634.205 349.903 639.467 353.599C646.868 358.798 652.698 364.848 656.779 372.865C659.217 377.654 661.006 384.431 659.368 389.655C657.44 395.807 652.144 400.939 645.169 399.855C640.856 399.185 636.903 396.33 633.625 393.643C629.703 390.428 626.564 386.563 623.972 382.27C619.744 375.267 617.26 367.351 613.668 360.033C611.964 356.56 610.317 353.063 608.275 349.762C607.265 348.128 606.189 346.509 604.656 345.294C603.836 344.644 600.378 343.52 601.7 342.061C582.31 342.315 565.132 357.207 561.409 375.641C561.063 377.359 560.792 379.091 560.505 380.82C560.325 381.911 560.398 385.937 559.422 386.634C557.27 388.172 558.174 383.499 558.267 382.826C558.506 381.087 558.76 379.35 559.027 377.615C560.481 368.181 564.681 359.411 571.685 352.683C579.694 344.99 590.501 340 601.818 340Z" fill="#89C5CC"/>
<path fill-rule="evenodd" clip-rule="evenodd" d="M62.9379 316.736C81.6043 348.052 103.345 378.374 116.401 412.613C115.875 408.577 115.317 404.545 114.692 400.52C111.38 379.179 107.262 357.994 102.936 336.835C100.733 326.062 98.402 315.327 96.012 304.594C94.727 298.829 93.457 293.061 92.145 287.302C91.827 285.906 91.554 283.469 91.157 281C103.845 322.637 116.081 364.305 125.031 406.942C126.205 412.538 127.205 418.124 128.024 423.7C128.304 422.428 128.58 421.156 128.881 419.887C132.503 404.68 137.935 389.594 144.403 375.374C147.495 368.575 151.046 361.924 155.228 355.726C157.836 351.863 163.986 347.271 166.364 343.314C153.355 367.176 148.657 397.032 141.145 422.973C139.312 429.304 137.467 435.624 135.659 441.955C146.987 419.237 164.563 400.571 189 392.483C159.42 412.027 141.678 446.254 129.722 481.26C129.683 481.675 129.636 482.09 129.595 482.506C133.114 475.829 137.545 469.789 143.551 465.56C156.407 456.504 170.667 459.142 183.137 466.91C173.35 460.689 155.663 466.354 147.428 472.677C141.533 477.203 136.495 483.275 132.12 489.2C131.072 490.62 129.641 492.277 128.13 494.044C126.012 507.795 122.56 521.452 117.672 535C118.479 531.111 117.896 524.892 118.12 521.993C118.144 521.68 118.164 521.365 118.188 521.053C117.445 524.019 116.727 526.951 116.036 529.837C117.41 524.331 118.156 518.583 118.739 512.776C118.889 510.281 119.036 507.785 119.19 505.29C119.141 500.553 118.946 495.799 118.616 491.036C117.447 486.408 116.137 482.042 115.056 478.411C111.159 465.31 105.444 452.76 98.411 441.051C91.994 430.366 84.3124 420.688 75.4448 411.935C70.6643 407.217 65.6614 402.725 60.7289 398.17C58.9453 396.523 55.7572 392.474 53 390.363C73.0805 401.434 93.749 413.41 108.398 431.248C106.68 424.653 104.815 418.151 102.842 411.78C92.831 379.454 80.1913 345.953 62.9379 316.736Z" fill="#DDE3E9"/>
<path fill-rule="evenodd" clip-rule="evenodd" d="M83 494C83 529.899 85.8428 559 124 559C162.157 559 165 529.899 165 494" fill="#C5CFD6"/>
<path d="M514 35C514 33.3431 512.657 32 511 32C509.343 32 508 33.3431 508 35V54C508 55.6569 509.343 57 511 57C512.657 57 514 55.6569 514 54V35Z" fill="#DDE3E9"/>
<path d="M528 19C528 17.3431 526.657 16 525 16C523.343 16 522 17.3431 522 19V54C522 55.6569 523.343 57 525 57C526.657 57 528 55.6569 528 54V19Z" fill="#DDE3E9"/>
<path d="M542 11C542 9.34315 540.657 8 539 8C537.343 8 536 9.34315 536 11V54C536 55.6569 537.343 57 539 57C540.657 57 542 55.6569 542 54V11Z" fill="#DDE3E9"/>
<path d="M556 19C556 17.3431 554.657 16 553 16C551.343 16 550 17.3431 550 19V54C550 55.6569 551.343 57 553 57C554.657 57 556 55.6569 556 54V19Z" fill="#DDE3E9"/>
<path d="M570 3C570 1.34315 568.657 0 567 0C565.343 0 564 1.34315 564 3V54C564 55.6569 565.343 57 567 57C568.657 57 570 55.6569 570 54V3Z" fill="#C5CFD6"/>
<path fill-rule="evenodd" clip-rule="evenodd" d="M16 306.256C16 295.117 25.002 286 36 286V306.256L22.332 321C18.444 317.395 16 312.107 16 306.256Z" fill="#F2F2F2"/>
<path fill-rule="evenodd" clip-rule="evenodd" d="M35.4707 306H55.668C55.668 311.221 53.5382 316.113 50.1713 319.668C46.4681 323.556 41.1946 326 35.4707 326C30.1983 326 25.3721 323.891 21.668 320.557L35.4707 306Z" fill="#AFB9C5"/>
<path fill-rule="evenodd" clip-rule="evenodd" d="M56 306C56 295.002 46.998 286 36 286V306H56ZM26 286L34 304L16 296C17.78 291.334 21.777 287.78 26 286Z" fill="#C5CFD6"/>
<path fill-rule="evenodd" clip-rule="evenodd" d="M666.766 315.179C664.845 317.219 662.123 318.5 659.095 318.5C653.278 318.5 648.562 313.799 648.562 308C648.562 302.201 653.278 297.5 659.095 297.5V278C642.546 278 629 291.503 629 308C629 324.497 642.546 338 659.095 338C667.788 338 675.645 334.334 681 328.502L666.766 315.179Z" fill="#F2F2F2"/>
<path fill-rule="evenodd" clip-rule="evenodd" d="M659 278V297.5C664.799 297.5 669.5 302.201 669.5 308H689C689 291.503 675.497 278 659 278Z" fill="#AFB9C5"/>
<path fill-rule="evenodd" clip-rule="evenodd" d="M669.097 308C669.097 311.407 667.492 314.435 665 316.391L677.262 332C684.399 326.412 689 317.749 689 308H669.097Z" fill="#C5CFD6"/>
<path fill-rule="evenodd" clip-rule="evenodd" d="M476.051 39.5039C474.573 41.0679 472.479 42.05 470.15 42.05C465.675 42.05 462.048 38.4459 462.048 34C462.048 29.5541 465.675 25.95 470.15 25.95V11C457.42 11 447 21.3523 447 34C447 46.6477 457.42 57 470.15 57C476.837 57 482.88 54.189 487 49.718L476.051 39.5039Z" fill="#F2F2F2"/>
<path fill-rule="evenodd" clip-rule="evenodd" d="M470 11V25.95C474.446 25.95 478.05 29.5541 478.05 34H493C493 21.3523 482.648 11 470 11Z" fill="#AFB9C5"/>
<path fill-rule="evenodd" clip-rule="evenodd" d="M478.073 34C478.073 36.5552 476.869 38.8266 475 40.2931L484.196 52C489.55 47.8088 493 41.312 493 34H478.073Z" fill="#C5CFD6"/>
<path fill-rule="evenodd" clip-rule="evenodd" d="M112.006 56.986C112.002 56.996 111.998 57.006 111.992 57.018C111.998 57.008 112.006 56.968 112.006 56.986Z" fill="#C5CFD6"/>
<path fill-rule="evenodd" clip-rule="evenodd" d="M111.998 57.001C111.998 57.003 111.996 57.007 111.996 57.011C111.996 57.001 112.014 56.971 111.998 57.001Z" fill="#C5CFD6"/>
<path fill-rule="evenodd" clip-rule="evenodd" d="M112.068 56.832C112.054 56.872 112.036 56.91 112.02 56.95C112.028 56.93 112.036 56.914 112.044 56.894C111.836 57.414 111.968 57.076 112.068 56.832Z" fill="#C5CFD6"/>
<path fill-rule="evenodd" clip-rule="evenodd" d="M112.021 56.953C112.013 56.971 112.005 56.991 111.997 57.009C111.939 57.121 112.021 56.953 112.021 56.953Z" fill="#C5CFD6"/>
<path fill-rule="evenodd" clip-rule="evenodd" d="M111.99 57.016C112.046 56.924 111.978 57.04 111.99 57.016Z" fill="#C5CFD6"/>
<path fill-rule="evenodd" clip-rule="evenodd" d="M111.996 57.002L112 56.998C111.998 57 111.998 57.002 111.996 57.002Z" fill="#C5CFD6"/>
<path d="M155 5H68C65.7909 5 64 6.79086 64 9V64C64 66.2091 65.7909 68 68 68H155C157.209 68 159 66.2091 159 64V9C159 6.79086 157.209 5 155 5Z" fill="#DDE3E9"/>
<path fill-rule="evenodd" clip-rule="evenodd" d="M100 23L72 68H128L100 23Z" fill="#AFB9C5"/>
<path fill-rule="evenodd" clip-rule="evenodd" d="M127.5 35L103 68H152L127.5 35Z" fill="#C5CFD6"/>
<path fill-rule="evenodd" clip-rule="evenodd" d="M138 35C142.971 35 147 30.9706 147 26C147 21.0294 142.971 17 138 17C133.029 17 129 21.0294 129 26C129 30.9706 133.029 35 138 35Z" fill="white"/>
<path fill-rule="evenodd" clip-rule="evenodd" d="M588.992 483.986C588.996 483.996 589 484.006 589.006 484.018C589 484.008 588.992 483.968 588.992 483.986Z" fill="#C5CFD6"/>
<path fill-rule="evenodd" clip-rule="evenodd" d="M589.003 484.001C589.003 484.003 589.005 484.007 589.005 484.011C589.005 484.001 588.987 483.971 589.003 484.001Z" fill="#C5CFD6"/>
<path fill-rule="evenodd" clip-rule="evenodd" d="M588.934 483.832C588.948 483.872 588.966 483.91 588.982 483.95C588.974 483.93 588.966 483.914 588.958 483.894C589.166 484.414 589.034 484.076 588.934 483.832Z" fill="#C5CFD6"/>
<path fill-rule="evenodd" clip-rule="evenodd" d="M588.977 483.953C588.985 483.971 588.993 483.991 589.001 484.009C589.059 484.121 588.977 483.953 588.977 483.953Z" fill="#C5CFD6"/>
<path fill-rule="evenodd" clip-rule="evenodd" d="M589.011 484.016C589.023 484.04 588.955 483.924 589.011 484.016Z" fill="#C5CFD6"/>
<path fill-rule="evenodd" clip-rule="evenodd" d="M589 484.002L588.996 483.998C588.998 484 588.998 484.002 589 484.002Z" fill="#C5CFD6"/>
<path d="M522 407H656C658.209 407 660 408.791 660 411V497C660 499.209 658.209 501 656 501H522C519.791 501 518 499.209 518 497V411C518 408.791 519.791 407 522 407Z" fill="#DDE3E9"/>
<path fill-rule="evenodd" clip-rule="evenodd" d="M607.274 434L648.329 501H566.219L607.274 434Z" fill="#AFB9C5"/>
<path fill-rule="evenodd" clip-rule="evenodd" d="M564.943 451.947L601.238 501H528.648L564.943 451.947Z" fill="#C5CFD6"/>
<path fill-rule="evenodd" clip-rule="evenodd" d="M549.5 452C542.044 452 536 445.956 536 438.5C536 431.044 542.044 425 549.5 425C556.956 425 563 431.044 563 438.5C563 445.956 556.956 452 549.5 452Z" fill="white"/>
</svg>
